<?xml version="1.0" encoding="UTF-8" standalone="no"?>
<!DOCTYPE svg PUBLIC "-//W3C//DTD SVG 1.1//EN"
 "http://www.w3.org/Graphics/SVG/1.1/DTD/svg11.dtd">
<!-- Generated by graphviz version 12.1.1 (20240910.0053)
 -->
<!-- Title: INFRA Pages: 1 -->
<svg width="2567pt" height="188pt"
 viewBox="0.00 0.00 2567.35 188.00" xmlns="http://www.w3.org/2000/svg" xmlns:xlink="http://www.w3.org/1999/xlink">
<g id="graph0" class="graph" transform="scale(1 1) rotate(0) translate(4 184)">
<title>INFRA</title>
<polygon fill="white" stroke="none" points="-4,4 -4,-184 2563.35,-184 2563.35,4 -4,4"/>
<!-- server -->
<g id="node1" class="node">
<title>server</title>
<path fill="#b7e0ff" stroke="black" stroke-width="2" d="M524.56,-72C524.56,-72 395.63,-72 395.63,-72 389.63,-72 383.63,-66 383.63,-60 383.63,-60 383.63,-12 383.63,-12 383.63,-6 389.63,0 395.63,0 395.63,0 524.56,0 524.56,0 530.56,0 536.56,-6 536.56,-12 536.56,-12 536.56,-60 536.56,-60 536.56,-66 530.56,-72 524.56,-72"/>
<text text-anchor="middle" x="460.1" y="-40.2" font-family="Arial" font-size="14.00">server</text>
<text text-anchor="middle" x="460.1" y="-23.4" font-family="Arial" font-size="14.00">(AWS::EC2::Instance)</text>
</g>
<!-- template -->
<g id="node2" class="node">
<title>template</title>
<path fill="#b7e0ff" stroke="black" stroke-width="2" d="M1174.24,-180C1174.24,-180 993.95,-180 993.95,-180 987.95,-180 981.95,-174 981.95,-168 981.95,-168 981.95,-120 981.95,-120 981.95,-114 987.95,-108 993.95,-108 993.95,-108 1174.24,-108 1174.24,-108 1180.24,-108 1186.24,-114 1186.24,-120 1186.24,-120 1186.24,-168 1186.24,-168 1186.24,-174 1180.24,-180 1174.24,-180"/>
<text text-anchor="middle" x="1084.1" y="-148.2" font-family="Arial" font-size="14.00">template</text>
<text text-anchor="middle" x="1084.1" y="-131.4" font-family="Arial" font-size="14.00">(AWS::EC2::LaunchTemplate)</text>
</g>
<!-- start_ec2_instance -->
<g id="node3" class="node">
<title>start_ec2_instance</title>
<path fill="#e6e6e6" stroke="black" stroke-width="2" d="M182.19,-180C182.19,-180 12,-180 12,-180 6,-180 0,-174 0,-168 0,-168 0,-120 0,-120 0,-114 6,-108 12,-108 12,-108 182.19,-108 182.19,-108 188.19,-108 194.19,-114 194.19,-120 194.19,-120 194.19,-168 194.19,-168 194.19,-174 188.19,-180 182.19,-180"/>
<text text-anchor="middle" x="97.1" y="-148.2" font-family="Arial" font-size="14.00">start_ec2_instance</text>
<text text-anchor="middle" x="97.1" y="-131.4" font-family="Arial" font-size="14.00">(AWS::Scheduler::Schedule)</text>
</g>
<!-- start_ec2_instance&#45;&gt;server -->
<g id="edge1" class="edge">
<title>start_ec2_instance&#45;&gt;server</title>
<path fill="none" stroke="black" d="M194.65,-110.59C197.49,-109.71 200.31,-108.84 203.1,-108 259.11,-91.03 322.48,-73.5 372.28,-60.11"/>
<polygon fill="black" stroke="black" points="373.13,-63.51 381.88,-57.53 371.31,-56.74 373.13,-63.51"/>
</g>
<!-- stop_ec2_instance -->
<g id="node4" class="node">
<title>stop_ec2_instance</title>
<path fill="#e6e6e6" stroke="black" stroke-width="2" d="M394.19,-180C394.19,-180 224,-180 224,-180 218,-180 212,-174 212,-168 212,-168 212,-120 212,-120 212,-114 218,-108 224,-108 224,-108 394.19,-108 394.19,-108 400.19,-108 406.19,-114 406.19,-120 406.19,-120 406.19,-168 406.19,-168 406.19,-174 400.19,-180 394.19,-180"/>
<text text-anchor="middle" x="309.1" y="-148.2" font-family="Arial" font-size="14.00">stop_ec2_instance</text>
<text text-anchor="middle" x="309.1" y="-131.4" font-family="Arial" font-size="14.00">(AWS::Scheduler::Schedule)</text>
</g>
<!-- stop_ec2_instance&#45;&gt;server -->
<g id="edge2" class="edge">
<title>stop_ec2_instance&#45;&gt;server</title>
<path fill="none" stroke="black" d="M359.38,-107.7C372.55,-98.46 386.88,-88.39 400.49,-78.84"/>
<polygon fill="black" stroke="black" points="402.37,-81.8 408.54,-73.19 398.34,-76.07 402.37,-81.8"/>
</g>
<!-- ec2_optimiser -->
<g id="node5" class="node">
<title>ec2_optimiser</title>
<path fill="#e6e6e6" stroke="black" stroke-width="2" d="M1488.14,-180C1488.14,-180 1216.06,-180 1216.06,-180 1210.06,-180 1204.06,-174 1204.06,-168 1204.06,-168 1204.06,-120 1204.06,-120 1204.06,-114 1210.06,-108 1216.06,-108 1216.06,-108 1488.14,-108 1488.14,-108 1494.14,-108 1500.14,-114 1500.14,-120 1500.14,-120 1500.14,-168 1500.14,-168 1500.14,-174 1494.14,-180 1488.14,-180"/>
<text text-anchor="middle" x="1352.1" y="-148.2" font-family="Arial" font-size="14.00">ec2_optimiser</text>
<text text-anchor="middle" x="1352.1" y="-131.4" font-family="Arial" font-size="14.00">(AWS::ComputeOptimizer::EnrollmentStatus)</text>
</g>
<!-- ec2_preference -->
<g id="node6" class="node">
<title>ec2_preference</title>
<path fill="#e6e6e6" stroke="black" stroke-width="2" d="M786.44,-180C786.44,-180 435.76,-180 435.76,-180 429.76,-180 423.76,-174 423.76,-168 423.76,-168 423.76,-120 423.76,-120 423.76,-114 429.76,-108 435.76,-108 435.76,-108 786.44,-108 786.44,-108 792.44,-108 798.44,-114 798.44,-120 798.44,-120 798.44,-168 798.44,-168 798.44,-174 792.44,-180 786.44,-180"/>
<text text-anchor="middle" x="611.1" y="-148.2" font-family="Arial" font-size="14.00">ec2_preference</text>
<text text-anchor="middle" x="611.1" y="-131.4" font-family="Arial" font-size="14.00">(AWS::ComputeOptimizer::RecommendationPreferences)</text>
</g>
<!-- ec2_preference&#45;&gt;server -->
<g id="edge3" class="edge">
<title>ec2_preference&#45;&gt;server</title>
<path fill="none" stroke="black" d="M560.82,-107.7C547.64,-98.46 533.31,-88.39 519.7,-78.84"/>
<polygon fill="black" stroke="black" points="521.85,-76.07 511.65,-73.19 517.83,-81.8 521.85,-76.07"/>
</g>
<!-- ec2_instance_role -->
<g id="node7" class="node">
<title>ec2_instance_role</title>
<path fill="#e6e6e6" stroke="black" stroke-width="2" d="M1665.91,-72C1665.91,-72 1560.28,-72 1560.28,-72 1554.28,-72 1548.28,-66 1548.28,-60 1548.28,-60 1548.28,-12 1548.28,-12 1548.28,-6 1554.28,0 1560.28,0 1560.28,0 1665.91,0 1665.91,0 1671.91,0 1677.91,-6 1677.91,-12 1677.91,-12 1677.91,-60 1677.91,-60 1677.91,-66 1671.91,-72 1665.91,-72"/>
<text text-anchor="middle" x="1613.1" y="-40.2" font-family="Arial" font-size="14.00">ec2_instance_role</text>
<text text-anchor="middle" x="1613.1" y="-23.4" font-family="Arial" font-size="14.00">(AWS::IAM::Role)</text>
</g>
<!-- ec2_optimizer_policy -->
<g id="node8" class="node">
<title>ec2_optimizer_policy</title>
<path fill="#e6e6e6" stroke="black" stroke-width="2" d="M951.46,-180C951.46,-180 828.73,-180 828.73,-180 822.73,-180 816.73,-174 816.73,-168 816.73,-168 816.73,-120 816.73,-120 816.73,-114 822.73,-108 828.73,-108 828.73,-108 951.46,-108 951.46,-108 957.46,-108 963.46,-114 963.46,-120 963.46,-120 963.46,-168 963.46,-168 963.46,-174 957.46,-180 951.46,-180"/>
<text text-anchor="middle" x="890.1" y="-148.2" font-family="Arial" font-size="14.00">ec2_optimizer_policy</text>
<text text-anchor="middle" x="890.1" y="-131.4" font-family="Arial" font-size="14.00">(AWS::IAM::Policy)</text>
</g>
<!-- ec2_optimizer_policy&#45;&gt;server -->
<g id="edge4" class="edge">
<title>ec2_optimizer_policy&#45;&gt;server</title>
<path fill="none" stroke="black" d="M816.61,-111.12C813.41,-110.02 810.23,-108.97 807.1,-108 720.68,-81.23 618.98,-61.78 548.1,-50.07"/>
<polygon fill="black" stroke="black" points="548.93,-46.66 538.49,-48.51 547.8,-53.57 548.93,-46.66"/>
</g>
<!-- ec2_profile -->
<g id="node9" class="node">
<title>ec2_profile</title>
<path fill="#e6e6e6" stroke="black" stroke-width="2" d="M1696.23,-180C1696.23,-180 1529.96,-180 1529.96,-180 1523.96,-180 1517.96,-174 1517.96,-168 1517.96,-168 1517.96,-120 1517.96,-120 1517.96,-114 1523.96,-108 1529.96,-108 1529.96,-108 1696.23,-108 1696.23,-108 1702.23,-108 1708.23,-114 1708.23,-120 1708.23,-120 1708.23,-168 1708.23,-168 1708.23,-174 1702.23,-180 1696.23,-180"/>
<text text-anchor="middle" x="1613.1" y="-148.2" font-family="Arial" font-size="14.00">ec2_profile</text>
<text text-anchor="middle" x="1613.1" y="-131.4" font-family="Arial" font-size="14.00">(AWS::IAM::InstanceProfile)</text>
</g>
<!-- ec2_profile&#45;&gt;ec2_instance_role -->
<g id="edge5" class="edge">
<title>ec2_profile&#45;&gt;ec2_instance_role</title>
<path fill="none" stroke="black" d="M1613.1,-107.7C1613.1,-99.93 1613.1,-91.57 1613.1,-83.43"/>
<polygon fill="black" stroke="black" points="1616.6,-83.66 1613.1,-73.66 1609.6,-83.66 1616.6,-83.66"/>
</g>
<!-- ec2_cloudwatch_alarm -->
<g id="node10" class="node">
<title>ec2_cloudwatch_alarm</title>
<path fill="#e6e6e6" stroke="black" stroke-width="2" d="M1906.89,-180C1906.89,-180 1745.3,-180 1745.3,-180 1739.3,-180 1733.3,-174 1733.3,-168 1733.3,-168 1733.3,-120 1733.3,-120 1733.3,-114 1739.3,-108 1745.3,-108 1745.3,-108 1906.89,-108 1906.89,-108 1912.89,-108 1918.89,-114 1918.89,-120 1918.89,-120 1918.89,-168 1918.89,-168 1918.89,-174 1912.89,-180 1906.89,-180"/>
<text text-anchor="middle" x="1826.1" y="-148.2" font-family="Arial" font-size="14.00">ec2_cloudwatch_alarm</text>
<text text-anchor="middle" x="1826.1" y="-131.4" font-family="Arial" font-size="14.00">(AWS::CloudWatch::Alarm)</text>
</g>
<!-- ec2_asg -->
<g id="node13" class="node">
<title>ec2_asg</title>
<path fill="#b7e0ff" stroke="black" stroke-width="2" d="M1944.65,-72C1944.65,-72 1707.54,-72 1707.54,-72 1701.54,-72 1695.54,-66 1695.54,-60 1695.54,-60 1695.54,-12 1695.54,-12 1695.54,-6 1701.54,0 1707.54,0 1707.54,0 1944.65,0 1944.65,0 1950.65,0 1956.65,-6 1956.65,-12 1956.65,-12 1956.65,-60 1956.65,-60 1956.65,-66 1950.65,-72 1944.65,-72"/>
<text text-anchor="middle" x="1826.1" y="-40.2" font-family="Arial" font-size="14.00">ec2_asg</text>
<text text-anchor="middle" x="1826.1" y="-23.4" font-family="Arial" font-size="14.00">(AWS::AutoScaling::AutoScalingGroup)</text>
</g>
<!-- ec2_cloudwatch_alarm&#45;&gt;ec2_asg -->
<g id="edge6" class="edge">
<title>ec2_cloudwatch_alarm&#45;&gt;ec2_asg</title>
<path fill="none" stroke="black" d="M1826.1,-107.7C1826.1,-99.93 1826.1,-91.57 1826.1,-83.43"/>
<polygon fill="black" stroke="black" points="1829.6,-83.66 1826.1,-73.66 1822.6,-83.66 1829.6,-83.66"/>
</g>
<!-- ec2_cloudwatch_terminate_alarm -->
<g id="node11" class="node">
<title>ec2_cloudwatch_terminate_alarm</title>
<path fill="#e6e6e6" stroke="black" stroke-width="2" d="M2149.76,-180C2149.76,-180 1948.43,-180 1948.43,-180 1942.43,-180 1936.43,-174 1936.43,-168 1936.43,-168 1936.43,-120 1936.43,-120 1936.43,-114 1942.43,-108 1948.43,-108 1948.43,-108 2149.76,-108 2149.76,-108 2155.76,-108 2161.76,-114 2161.76,-120 2161.76,-120 2161.76,-168 2161.76,-168 2161.76,-174 2155.76,-180 2149.76,-180"/>
<text text-anchor="middle" x="2049.1" y="-148.2" font-family="Arial" font-size="14.00">ec2_cloudwatch_terminate_alarm</text>
<text text-anchor="middle" x="2049.1" y="-131.4" font-family="Arial" font-size="14.00">(AWS::CloudWatch::Alarm)</text>
</g>
<!-- ec2_cloudwatch_cost_alarm -->
<g id="node12" class="node">
<title>ec2_cloudwatch_cost_alarm</title>
<path fill="#e6e6e6" stroke="black" stroke-width="2" d="M2360.42,-180C2360.42,-180 2191.77,-180 2191.77,-180 2185.77,-180 2179.77,-174 2179.77,-168 2179.77,-168 2179.77,-120 2179.77,-120 2179.77,-114 2185.77,-108 2191.77,-108 2191.77,-108 2360.42,-108 2360.42,-108 2366.42,-108 2372.42,-114 2372.42,-120 2372.42,-120 2372.42,-168 2372.42,-168 2372.42,-174 2366.42,-180 2360.42,-180"/>
<text text-anchor="middle" x="2276.1" y="-148.2" font-family="Arial" font-size="14.00">ec2_cloudwatch_cost_alarm</text>
<text text-anchor="middle" x="2276.1" y="-131.4" font-family="Arial" font-size="14.00">(AWS::CloudWatch::Alarm)</text>
</g>
<!-- ec2_budget -->
<g id="node14" class="node">
<title>ec2_budget</title>
<path fill="#e6e6e6" stroke="black" stroke-width="2" d="M2547.35,-180C2547.35,-180 2402.84,-180 2402.84,-180 2396.84,-180 2390.84,-174 2390.84,-168 2390.84,-168 2390.84,-120 2390.84,-120 2390.84,-114 2396.84,-108 2402.84,-108 2402.84,-108 2547.35,-108 2547.35,-108 2553.35,-108 2559.35,-114 2559.35,-120 2559.35,-120 2559.35,-168 2559.35,-168 2559.35,-174 2553.35,-180 2547.35,-180"/>
<text text-anchor="middle" x="2475.1" y="-148.2" font-family="Arial" font-size="14.00">ec2_budget</text>
<text text-anchor="middle" x="2475.1" y="-131.4" font-family="Arial" font-size="14.00">(AWS::Budgets::Budget)</text>
</g>
</g>
</svg>
