<?xml version="1.0" encoding="UTF-8" standalone="no"?>
<!DOCTYPE svg PUBLIC "-//W3C//DTD SVG 1.1//EN"
 "http://www.w3.org/Graphics/SVG/1.1/DTD/svg11.dtd">
<!-- Generated by graphviz version 12.1.1 (20240910.0053)
 -->
<!-- Title: INFRA Pages: 1 -->
<svg width="1580pt" height="404pt"
 viewBox="0.00 0.00 1579.62 404.00" xmlns="http://www.w3.org/2000/svg" xmlns:xlink="http://www.w3.org/1999/xlink">
<g id="graph0" class="graph" transform="scale(1 1) rotate(0) translate(4 400)">
<title>INFRA</title>
<polygon fill="white" stroke="none" points="-4,4 -4,-400 1575.62,-400 1575.62,4 -4,4"/>
<!-- network -->
<g id="node1" class="node">
<title>network</title>
<ellipse fill="#e6e6e6" stroke="black" stroke-width="2" cx="1073.98" cy="-36" rx="48.88" ry="36"/>
<text text-anchor="middle" x="1073.98" y="-40.2" font-family="Arial" font-size="14.00">network</text>
<text text-anchor="middle" x="1073.98" y="-23.4" font-family="Arial" font-size="14.00">(aws_vpc)</text>
</g>
<!-- gateway -->
<g id="node2" class="node">
<title>gateway</title>
<ellipse fill="#e6e6e6" stroke="black" stroke-width="2" cx="1240.98" cy="-144" rx="100.85" ry="36"/>
<text text-anchor="middle" x="1240.98" y="-148.2" font-family="Arial" font-size="14.00">gateway</text>
<text text-anchor="middle" x="1240.98" y="-131.4" font-family="Arial" font-size="14.00">(aws_internet_gateway)</text>
</g>
<!-- gateway&#45;&gt;network -->
<g id="edge1" class="edge">
<title>gateway&#45;&gt;network</title>
<path fill="none" stroke="black" d="M1192.23,-112.06C1169.5,-97.63 1142.59,-80.55 1120.19,-66.33"/>
<polygon fill="black" stroke="black" points="1122.17,-63.44 1111.85,-61.04 1118.42,-69.35 1122.17,-63.44"/>
</g>
<!-- private -->
<g id="node3" class="node">
<title>private</title>
<ellipse fill="#e6e6e6" stroke="black" stroke-width="2" cx="883.98" cy="-144" rx="126.13" ry="36"/>
<text text-anchor="middle" x="883.98" y="-148.2" font-family="Arial" font-size="14.00">private</text>
<text text-anchor="middle" x="883.98" y="-131.4" font-family="Arial" font-size="14.00">(aws_route_table_association)</text>
</g>
<!-- private&#45;&gt;network -->
<g id="edge2" class="edge">
<title>private&#45;&gt;network</title>
<path fill="none" stroke="black" d="M935.49,-110.76C962.8,-95.1 996.17,-76.57 1023.35,-61.99"/>
<polygon fill="black" stroke="black" points="1024.93,-65.12 1032.1,-57.33 1021.63,-58.94 1024.93,-65.12"/>
</g>
<!-- private&#45;&gt;network -->
<g id="edge4" class="edge">
<title>private&#45;&gt;network</title>
<path fill="none" stroke="black" d="M945.38,-112.2C972.16,-97.69 1002.98,-80.48 1027.77,-66.18"/>
<polygon fill="black" stroke="black" points="1029.45,-69.26 1036.34,-61.22 1025.93,-63.2 1029.45,-69.26"/>
</g>
<!-- private&#45;&gt;private -->
<g id="edge7" class="edge">
<title>private&#45;&gt;private</title>
<path fill="none" stroke="black" d="M1006.99,-152.39C1019.86,-150.75 1028.11,-147.96 1028.11,-144 1028.11,-141.34 1024.38,-139.21 1018.04,-137.6"/>
<polygon fill="black" stroke="black" points="1018.94,-134.2 1008.48,-135.88 1017.7,-141.09 1018.94,-134.2"/>
</g>
<!-- private&#45;&gt;private -->
<g id="edge8" class="edge">
<title>private&#45;&gt;private</title>
<path fill="none" stroke="black" d="M989.24,-164.22C1021.16,-163.71 1046.11,-156.97 1046.11,-144 1046.11,-132.6 1026.83,-126.01 1000.49,-124.24"/>
<polygon fill="black" stroke="black" points="1000.88,-120.75 990.75,-123.84 1000.6,-127.75 1000.88,-120.75"/>
</g>
<!-- public -->
<g id="node4" class="node">
<title>public</title>
<ellipse fill="#e6e6e6" stroke="black" stroke-width="2" cx="1360.98" cy="-252" rx="126.13" ry="36"/>
<text text-anchor="middle" x="1360.98" y="-256.2" font-family="Arial" font-size="14.00">public</text>
<text text-anchor="middle" x="1360.98" y="-239.4" font-family="Arial" font-size="14.00">(aws_route_table_association)</text>
</g>
<!-- public&#45;&gt;network -->
<g id="edge3" class="edge">
<title>public&#45;&gt;network</title>
<path fill="none" stroke="black" d="M1362.07,-215.62C1365.13,-183.8 1366.68,-137.63 1341.98,-108 1315.26,-75.94 1204.14,-55.37 1133.57,-45.02"/>
<polygon fill="black" stroke="black" points="1134.08,-41.56 1123.68,-43.6 1133.09,-48.49 1134.08,-41.56"/>
</g>
<!-- public&#45;&gt;network -->
<g id="edge5" class="edge">
<title>public&#45;&gt;network</title>
<path fill="none" stroke="black" d="M1376.01,-215.93C1383.12,-184.1 1384.76,-137.73 1359.98,-108 1331.71,-74.09 1209,-53.02 1133.72,-43.33"/>
<polygon fill="black" stroke="black" points="1134.38,-39.88 1124.02,-42.11 1133.51,-46.83 1134.38,-39.88"/>
</g>
<!-- public&#45;&gt;gateway -->
<g id="edge6" class="edge">
<title>public&#45;&gt;gateway</title>
<path fill="none" stroke="black" d="M1323.01,-217.46C1311.41,-207.21 1298.53,-195.83 1286.48,-185.19"/>
<polygon fill="black" stroke="black" points="1288.83,-182.6 1279.02,-178.6 1284.19,-187.84 1288.83,-182.6"/>
</g>
<!-- public&#45;&gt;public -->
<g id="edge9" class="edge">
<title>public&#45;&gt;public</title>
<path fill="none" stroke="black" d="M1483.99,-260.39C1496.86,-258.75 1505.11,-255.96 1505.11,-252 1505.11,-249.34 1501.38,-247.21 1495.04,-245.6"/>
<polygon fill="black" stroke="black" points="1495.94,-242.2 1485.48,-243.88 1494.7,-249.09 1495.94,-242.2"/>
</g>
<!-- public&#45;&gt;public -->
<g id="edge10" class="edge">
<title>public&#45;&gt;public</title>
<path fill="none" stroke="black" d="M1466.24,-272.22C1498.16,-271.71 1523.11,-264.97 1523.11,-252 1523.11,-240.6 1503.83,-234.01 1477.49,-232.24"/>
<polygon fill="black" stroke="black" points="1477.88,-228.75 1467.75,-231.84 1477.6,-235.75 1477.88,-228.75"/>
</g>
<!-- ip -->
<g id="node5" class="node">
<title>ip</title>
<ellipse fill="#e6e6e6" stroke="black" stroke-width="2" cx="46.98" cy="-252" rx="46.98" ry="36"/>
<text text-anchor="middle" x="46.98" y="-256.2" font-family="Arial" font-size="14.00">ip</text>
<text text-anchor="middle" x="46.98" y="-239.4" font-family="Arial" font-size="14.00">(aws_eip)</text>
</g>
<!-- nat -->
<g id="node6" class="node">
<title>nat</title>
<ellipse fill="#e6e6e6" stroke="black" stroke-width="2" cx="712.98" cy="-360" rx="84.17" ry="36"/>
<text text-anchor="middle" x="712.98" y="-364.2" font-family="Arial" font-size="14.00">nat</text>
<text text-anchor="middle" x="712.98" y="-347.4" font-family="Arial" font-size="14.00">(aws_nat_gateway)</text>
</g>
<!-- nat&#45;&gt;public -->
<g id="edge12" class="edge">
<title>nat&#45;&gt;public</title>
<path fill="none" stroke="black" d="M793.91,-349.47C892.2,-337.42 1062.87,-314.96 1207.98,-288 1223.33,-285.15 1239.46,-281.82 1255.27,-278.37"/>
<polygon fill="black" stroke="black" points="1255.66,-281.87 1264.67,-276.3 1254.15,-275.04 1255.66,-281.87"/>
</g>
<!-- nat&#45;&gt;ip -->
<g id="edge11" class="edge">
<title>nat&#45;&gt;ip</title>
<path fill="none" stroke="black" d="M629.61,-353.84C485.99,-344.21 198.18,-321.38 102.98,-288 98.84,-286.55 94.68,-284.75 90.61,-282.74"/>
<polygon fill="black" stroke="black" points="92.51,-279.78 82.05,-278.1 89.17,-285.94 92.51,-279.78"/>
</g>
<!-- endpoint_security -->
<g id="node7" class="node">
<title>endpoint_security</title>
<ellipse fill="#e6e6e6" stroke="black" stroke-width="2" cx="609.98" cy="-144" rx="91.79" ry="36"/>
<text text-anchor="middle" x="609.98" y="-148.2" font-family="Arial" font-size="14.00">endpoint_security</text>
<text text-anchor="middle" x="609.98" y="-131.4" font-family="Arial" font-size="14.00">(aws_security_group)</text>
</g>
<!-- endpoint_security&#45;&gt;network -->
<g id="edge13" class="edge">
<title>endpoint_security&#45;&gt;network</title>
<path fill="none" stroke="black" d="M677.75,-119.25C690.38,-115.22 703.52,-111.28 715.98,-108 820.1,-80.6 943.71,-58.29 1015.07,-46.39"/>
<polygon fill="black" stroke="black" points="1015.28,-49.9 1024.58,-44.82 1014.14,-43 1015.28,-49.9"/>
</g>
<!-- allow_tls_ipv4 -->
<g id="node8" class="node">
<title>allow_tls_ipv4</title>
<ellipse fill="#e6e6e6" stroke="black" stroke-width="2" cx="272.98" cy="-252" rx="161.39" ry="36"/>
<text text-anchor="middle" x="272.98" y="-256.2" font-family="Arial" font-size="14.00">allow_tls_ipv4</text>
<text text-anchor="middle" x="272.98" y="-239.4" font-family="Arial" font-size="14.00">(aws_vpc_security_group_ingress_rule)</text>
</g>
<!-- allow_tls_ipv4&#45;&gt;endpoint_security -->
<g id="edge14" class="edge">
<title>allow_tls_ipv4&#45;&gt;endpoint_security</title>
<path fill="none" stroke="black" d="M365.07,-222.04C416.07,-205.99 478.92,-186.22 528.18,-170.73"/>
<polygon fill="black" stroke="black" points="529.18,-174.08 537.67,-167.74 527.08,-167.41 529.18,-174.08"/>
</g>
<!-- s3 -->
<g id="node9" class="node">
<title>s3</title>
<ellipse fill="#e6e6e6" stroke="black" stroke-width="2" cx="1111.98" cy="-252" rx="86.56" ry="36"/>
<text text-anchor="middle" x="1111.98" y="-256.2" font-family="Arial" font-size="14.00">s3</text>
<text text-anchor="middle" x="1111.98" y="-239.4" font-family="Arial" font-size="14.00">(aws_vpc_endpoint)</text>
</g>
<!-- s3&#45;&gt;network -->
<g id="edge15" class="edge">
<title>s3&#45;&gt;network</title>
<path fill="none" stroke="black" d="M1106.34,-215.69C1101.64,-186.72 1094.67,-144.65 1087.98,-108 1086.51,-99.93 1084.87,-91.35 1083.26,-83.06"/>
<polygon fill="black" stroke="black" points="1086.74,-82.61 1081.38,-73.48 1079.87,-83.96 1086.74,-82.61"/>
</g>
<!-- s3&#45;&gt;private -->
<g id="edge16" class="edge">
<title>s3&#45;&gt;private</title>
<path fill="none" stroke="black" d="M1055.03,-224.53C1026.12,-211.08 990.61,-194.57 959.45,-180.09"/>
<polygon fill="black" stroke="black" points="960.98,-176.94 950.44,-175.9 958.03,-183.29 960.98,-176.94"/>
</g>
<!-- ecr_docker -->
<g id="node10" class="node">
<title>ecr_docker</title>
<ellipse fill="#e6e6e6" stroke="black" stroke-width="2" cx="920.98" cy="-252" rx="86.56" ry="36"/>
<text text-anchor="middle" x="920.98" y="-256.2" font-family="Arial" font-size="14.00">ecr_docker</text>
<text text-anchor="middle" x="920.98" y="-239.4" font-family="Arial" font-size="14.00">(aws_vpc_endpoint)</text>
</g>
<!-- ecr_docker&#45;&gt;network -->
<g id="edge17" class="edge">
<title>ecr_docker&#45;&gt;network</title>
<path fill="none" stroke="black" d="M989.37,-229.72C1013.81,-218.71 1039.19,-202.69 1054.98,-180 1074.36,-152.14 1078.55,-113.71 1078.2,-83.7"/>
<polygon fill="black" stroke="black" points="1081.7,-83.64 1077.89,-73.75 1074.7,-83.86 1081.7,-83.64"/>
</g>
<!-- ecr_docker&#45;&gt;private -->
<g id="edge18" class="edge">
<title>ecr_docker&#45;&gt;private</title>
<path fill="none" stroke="black" d="M908.76,-216C905.95,-207.95 902.92,-199.27 899.98,-190.84"/>
<polygon fill="black" stroke="black" points="903.28,-189.68 896.68,-181.39 896.67,-191.99 903.28,-189.68"/>
</g>
<!-- ecr_docker&#45;&gt;endpoint_security -->
<g id="edge19" class="edge">
<title>ecr_docker&#45;&gt;endpoint_security</title>
<path fill="none" stroke="black" d="M857.21,-227.16C846.8,-223.36 836.1,-219.53 825.98,-216 781.59,-200.53 731.76,-184.09 691.16,-170.93"/>
<polygon fill="black" stroke="black" points="692.26,-167.61 681.67,-167.86 690.11,-174.27 692.26,-167.61"/>
</g>
<!-- ecr_api -->
<g id="node11" class="node">
<title>ecr_api</title>
<ellipse fill="#e6e6e6" stroke="black" stroke-width="2" cx="538.98" cy="-252" rx="86.56" ry="36"/>
<text text-anchor="middle" x="538.98" y="-256.2" font-family="Arial" font-size="14.00">ecr_api</text>
<text text-anchor="middle" x="538.98" y="-239.4" font-family="Arial" font-size="14.00">(aws_vpc_endpoint)</text>
</g>
<!-- ecr_api&#45;&gt;network -->
<g id="edge20" class="edge">
<title>ecr_api&#45;&gt;network</title>
<path fill="none" stroke="black" d="M517.17,-216.78C499.89,-184.88 482.63,-137.87 508.98,-108 542.02,-70.55 874.92,-47.98 1013.72,-40.14"/>
<polygon fill="black" stroke="black" points="1013.65,-43.65 1023.44,-39.6 1013.26,-36.66 1013.65,-43.65"/>
</g>
<!-- ecr_api&#45;&gt;private -->
<g id="edge21" class="edge">
<title>ecr_api&#45;&gt;private</title>
<path fill="none" stroke="black" d="M602.11,-226.98C612.7,-223.17 623.62,-219.37 633.98,-216 682.13,-200.32 736.12,-184.74 781.57,-172.18"/>
<polygon fill="black" stroke="black" points="782.46,-175.57 791.17,-169.54 780.6,-168.82 782.46,-175.57"/>
</g>
<!-- ecr_api&#45;&gt;endpoint_security -->
<g id="edge22" class="edge">
<title>ecr_api&#45;&gt;endpoint_security</title>
<path fill="none" stroke="black" d="M561.84,-216.88C567.92,-207.8 574.57,-197.87 580.93,-188.37"/>
<polygon fill="black" stroke="black" points="583.67,-190.57 586.32,-180.32 577.85,-186.68 583.67,-190.57"/>
</g>
<!-- cloudwatch_logs -->
<g id="node12" class="node">
<title>cloudwatch_logs</title>
<ellipse fill="#e6e6e6" stroke="black" stroke-width="2" cx="729.98" cy="-252" rx="86.56" ry="36"/>
<text text-anchor="middle" x="729.98" y="-256.2" font-family="Arial" font-size="14.00">cloudwatch_logs</text>
<text text-anchor="middle" x="729.98" y="-239.4" font-family="Arial" font-size="14.00">(aws_vpc_endpoint)</text>
</g>
<!-- cloudwatch_logs&#45;&gt;network -->
<g id="edge23" class="edge">
<title>cloudwatch_logs&#45;&gt;network</title>
<path fill="none" stroke="black" d="M724.3,-215.75C721.26,-183.56 722.52,-136.75 748.98,-108 784.09,-69.85 929.83,-50.29 1013.74,-42.01"/>
<polygon fill="black" stroke="black" points="1014.02,-45.49 1023.64,-41.06 1013.36,-38.53 1014.02,-45.49"/>
</g>
<!-- cloudwatch_logs&#45;&gt;private -->
<g id="edge24" class="edge">
<title>cloudwatch_logs&#45;&gt;private</title>
<path fill="none" stroke="black" d="M774.11,-220.62C790.69,-209.22 809.76,-196.08 827.32,-184"/>
<polygon fill="black" stroke="black" points="828.84,-187.2 835.09,-178.65 824.87,-181.43 828.84,-187.2"/>
</g>
<!-- cloudwatch_logs&#45;&gt;endpoint_security -->
<g id="edge25" class="edge">
<title>cloudwatch_logs&#45;&gt;endpoint_security</title>
<path fill="none" stroke="black" d="M693.65,-218.91C681.54,-208.21 667.91,-196.17 655.21,-184.95"/>
<polygon fill="black" stroke="black" points="657.55,-182.35 647.73,-178.35 652.91,-187.59 657.55,-182.35"/>
</g>
<!-- nat_gateway_role -->
<g id="node13" class="node">
<title>nat_gateway_role</title>
<path fill="#e6e6e6" stroke="black" stroke-width="2" d="M1545.24,-72C1545.24,-72 1442.72,-72 1442.72,-72 1436.72,-72 1430.72,-66 1430.72,-60 1430.72,-60 1430.72,-12 1430.72,-12 1430.72,-6 1436.72,0 1442.72,0 1442.72,0 1545.24,0 1545.24,0 1551.24,0 1557.24,-6 1557.24,-12 1557.24,-12 1557.24,-60 1557.24,-60 1557.24,-66 1551.24,-72 1545.24,-72"/>
<text text-anchor="middle" x="1493.98" y="-40.2" font-family="Arial" font-size="14.00">nat_gateway_role</text>
<text text-anchor="middle" x="1493.98" y="-23.4" font-family="Arial" font-size="14.00">(aws_iam_role)</text>
</g>
<!-- nat_gateway_policy -->
<g id="node14" class="node">
<title>nat_gateway_policy</title>
<path fill="#e6e6e6" stroke="black" stroke-width="2" d="M1559.62,-180C1559.62,-180 1428.34,-180 1428.34,-180 1422.34,-180 1416.34,-174 1416.34,-168 1416.34,-168 1416.34,-120 1416.34,-120 1416.34,-114 1422.34,-108 1428.34,-108 1428.34,-108 1559.62,-108 1559.62,-108 1565.62,-108 1571.62,-114 1571.62,-120 1571.62,-120 1571.62,-168 1571.62,-168 1571.62,-174 1565.62,-180 1559.62,-180"/>
<text text-anchor="middle" x="1493.98" y="-148.2" font-family="Arial" font-size="14.00">nat_gateway_policy</text>
<text text-anchor="middle" x="1493.98" y="-131.4" font-family="Arial" font-size="14.00">(aws_iam_role_policy)</text>
</g>
<!-- nat_gateway_policy&#45;&gt;network -->
<g id="edge27" class="edge">
<title>nat_gateway_policy&#45;&gt;network</title>
<path fill="none" stroke="black" d="M1415.96,-112.4C1411.25,-110.84 1406.57,-109.36 1401.98,-108 1309.31,-80.51 1199,-58.83 1132.83,-46.98"/>
<polygon fill="black" stroke="black" points="1133.75,-43.59 1123.29,-45.29 1132.53,-50.48 1133.75,-43.59"/>
</g>
<!-- nat_gateway_policy&#45;&gt;nat_gateway_role -->
<g id="edge26" class="edge">
<title>nat_gateway_policy&#45;&gt;nat_gateway_role</title>
<path fill="none" stroke="black" d="M1493.98,-107.7C1493.98,-99.93 1493.98,-91.57 1493.98,-83.43"/>
<polygon fill="black" stroke="black" points="1497.48,-83.66 1493.98,-73.66 1490.48,-83.66 1497.48,-83.66"/>
</g>
</g>
</svg>
